<svg width="80" height="80" viewBox="0 0 80 80" xmlns="http://www.w3.org/2000/svg" xmlns:xlink="http://www.w3.org/1999/xlink" overflow="hidden"><g id="Icon-Architecture/64/Arch_AWS-Marketplace_Dark_64" stroke="none" stroke-width="1" fill="none" fill-rule="evenodd"><rect x="0" y="0" width="80" height="80" id="Rectangle" fill="#FFFFFF"/><g id="Icon-Service/64/AWS-Marketplace_64" fill="#232F3D" transform="translate(16 15.5)"><path d="M32.98 45.0003C32.98 46.3783 31.859 47.5003 30.48 47.5003 29.101 47.5003 27.98 46.3783 27.98 45.0003 27.98 43.6222 29.101 42.5003 30.48 42.5003 31.859 42.5003 32.98 43.6222 32.98 45.0003L32.98 45.0003ZM39.97 14.5002C39.495 14.5002 39.084 14.8352 38.99 15.3013L34.693 36.5003 4.799 36.5003 1.96 22.3043 0 22.6963 3 37.6963C3.093 38.1642 3.503 38.5003 3.98 38.5003L31.021 38.5003 29.861 40.5633C27.673 40.8683 25.98 42.7303 25.98 45.0003 25.98 47.4813 27.999 49.5003 30.48 49.5003 32.961 49.5003 34.98 47.4813 34.98 45.0003 34.98 43.0643 33.745 41.4243 32.026 40.7912L33.314 38.5003 35.51 38.5003C35.986 38.5003 36.396 38.1652 36.491 37.6992L40.788 16.5002 48.98 16.5002 48.98 14.5002 39.97 14.5002ZM10.48 47.5003C9.101 47.5003 7.98 46.3783 7.98 45.0003 7.98 43.6222 9.101 42.5003 10.48 42.5003 11.859 42.5003 12.98 43.6222 12.98 45.0003 12.98 46.3783 11.859 47.5003 10.48 47.5003L10.48 47.5003ZM10.48 40.5003C7.999 40.5003 5.98 42.5192 5.98 45.0003 5.98 47.4813 7.999 49.5003 10.48 49.5003 12.961 49.5003 14.98 47.4813 14.98 45.0003 14.98 42.5192 12.961 40.5003 10.48 40.5003L10.48 40.5003ZM10.98 2.15525 16.98 5.61925 10.98 9.08325 4.98 5.61925 10.98 2.15525ZM26.98 2.15525 32.98 5.61925 26.98 9.08325 20.98 5.61925 26.98 2.15525ZM27.98 17.7432 27.98 10.8153 33.98 7.35125 33.98 14.2793 27.98 17.7432ZM19.98 31.6443 19.98 24.7153 25.98 21.2512 25.98 28.1803 19.98 31.6443ZM11.98 21.2512 17.98 24.7153 17.98 31.6443 11.98 28.1803 11.98 21.2512ZM17.98 14.2793 11.98 17.7432 11.98 10.8153 17.98 7.35125 17.98 14.2793ZM25.98 17.7432 19.98 14.2793 19.98 7.35125 25.98 10.8153 25.98 17.7432ZM18.98 22.9832 12.942 19.4972 18.98 16.0112 25.018 19.4972 18.98 22.9832ZM3.98 7.35125 9.98 10.8153 9.98 17.7432 3.98 14.2793 3.98 7.35125ZM2.48 15.7233 9.98 20.0532 9.98 28.7572C9.98 29.1143 10.17 29.4443 10.48 29.6232L18.48 34.2422C18.634 34.3312 18.807 34.3753 18.98 34.3753 19.153 34.3753 19.326 34.3312 19.48 34.2422L27.48 29.6232C27.79 29.4443 27.98 29.1143 27.98 28.7572L27.98 20.0532 35.48 15.7233C35.79 15.5442 35.98 15.2142 35.98 14.8562L35.98 5.61925C35.98 5.26125 35.79 4.93125 35.48 4.75225L27.48 0.13425C27.171-0.04475 26.789-0.04475 26.48 0.13425L18.98 4.46425 11.48 0.13425C11.171-0.04475 10.789-0.04475 10.48 0.13425L2.48 4.75225C2.17 4.93125 1.98 5.26125 1.98 5.61925L1.98 14.8562C1.98 15.2142 2.17 15.5442 2.48 15.7233L2.48 15.7233Z" id="Fill-1"/></g></g></svg>